<svg id="Layer_1" data-name="Layer 1" xmlns="http://www.w3.org/2000/svg" viewBox="0 0 720 504"><defs><style>.cls-1{fill:#f4dfbb;}.cls-2{fill:#e0ceb6;}</style></defs><title>Moon</title><path class="cls-1" d="M607.78,213.61A29.59,29.59,0,1,1,578.19,184,29.58,29.58,0,0,1,607.78,213.61Z"/><path class="cls-2" d="M594,197.89a5.08,5.08,0,1,1-5.08-5.08A5.07,5.07,0,0,1,594,197.89Z"/><path class="cls-2" d="M599,207.65a2.52,2.52,0,1,1-2.52-2.51A2.51,2.51,0,0,1,599,207.65Z"/><path class="cls-2" d="M589.1,212.64a3.22,3.22,0,1,1-3.22-3.22A3.22,3.22,0,0,1,589.1,212.64Z"/></svg>