<svg xmlns="http://www.w3.org/2000/svg" viewBox="0 0 720 504"><defs><style>.cls-1{isolation:isolate;}.cls-2{fill:#151c30;}.cls-3{fill:#101721;}.cls-4{fill:#3f2c36;}.cls-5{fill:#212c44;}.cls-6{fill:#111828;}.cls-7{fill:#101726;}.cls-8{fill:#222642;}.cls-9{fill:#273250;}.cls-10,.cls-13{fill:#f88063;}.cls-11{fill:#fce1d9;opacity:0.7;}.cls-12{fill:#0b111e;}.cls-13{opacity:0.5;}.cls-14{opacity:0.1;}.cls-15{fill:#f4dfbb;}.cls-16{fill:#33242d;}.cls-17{fill:#101728;}.cls-18{fill:#773d3c;}.cls-19{fill:#c16256;}.cls-20{fill:#542f2a;}.cls-21{fill:#7a483f;}.cls-22{fill:#6d5867;}.cls-23{fill:#604a58;}.cls-24{fill:#721;opacity:0.2;mix-blend-mode:multiply;}.cls-25{fill:#1b243a;}</style></defs><title>Foreground</title><g class="cls-1"><g id="Layer_1" data-name="Layer 1"><polygon class="cls-2" points="0 352.35 84.65 396.54 360 423.08 597.11 402.17 720 361.58 720 504 0 504 0 352.35"/><path class="cls-3" d="M152.84,403.46l58.83,6.18,5,10.7-21.52,1.33,2.4,13.24c-5.23,6.76-44.72-2.79-44.72-2.79s5.46,8.33,8.16,9.87-20.54,8.1-20.54,8.1L161,458.16l-17.85,15.53s-7.21,7.56,14.13,10.8c34.05,5.18-39.49,19.51-39.49,19.51L0,503.19V460.26Z"/><path class="cls-4" d="M586.3,460.19c2.56,0,3.53-.36-1.11-.72-9.91-.78-12.17-1.56-14.39-1.73,0,0,27.79-.7,29.18-.67,3.56.08,1.24-1.62-3.06-1.73S566.67,454,566.67,454s21.33-.36,21.5-1.27-27.08-3-27.08-3l29.9-1.24s-37.65-1.79-45-1.69-27.67.91-27.67.91l-44.05,1.8,23.91,1.54-13.45,1.15s-30.81,1.62-32.36,2c-8.89,2,16,3.94,9.24,3.63,0,0,25.3.82,12.71,1.12-25.46.61-37.93-.2-35.34,1.29,2.75,1.59,35.5,1,35.5,1s-30.16,1.61-24.81,2.88c4.06,1,34.46-.34,34.46-.34S472.77,465.1,473,466s56,1.27,56,1.27,41.15-.7,44.16-1.57-2-1.93-2-1.93,22.66-.8,26-.93,3.87-.87-1.36-1-34.6-1.69-34.6-1.69C583.44,460.19,574.69,460.07,586.3,460.19Z"/><path class="cls-2" d="M135.06,326.34l13.87,5.77s-2.22,2.4-4.76,1.42C136.56,330.59,135.06,326.34,135.06,326.34Z"/><path class="cls-2" d="M130.61,296l14.32,6.89a9.32,9.32,0,0,1-5.49,0C131.84,299.9,130.61,296,130.61,296Z"/><polygon class="cls-5" points="92.92 186.02 112.87 234.19 102.21 222.86 103.87 241.19 91.37 212.27 92.92 186.02"/><path class="cls-6" d="M92.54,184.53s-4.81,24.88-17.33,38.66c-6.67,7.34,10-6.33,10-6.33L73.63,233.53l9.46-2.34s-.47,1.29-1.3,3c-1.25,2.56-3.32,6.07-5.92,7.67-4.33,2.67,10.34-8.33,10.34-8.33s5.33,9,2,13.66,5.63-2.33,4.33-16c-.67-7,4,8.67,6.67,12.34a43.42,43.42,0,0,0,0-6.67c-.34-1.67,4.66,6.67,4.66,6.67s-5.66-16-9.27-26.95c-.78-2.36-2.75-10.74,3.27-4.72C100.21,214.19,92.54,184.53,92.54,184.53Z"/><polygon class="cls-6" points="102.21 222.86 112.87 234.19 102.21 227.19 102.21 222.86"/><polygon class="cls-2" points="102.95 231.05 109.87 244.53 103.87 240.03 102.95 231.05"/><path class="cls-5" d="M121.62,358.7s44.11,31.84,58.43,39.34c10.8,5.66-15.33,0-15.33,0l19.24,15-17.71-6,13.29,10.15s-30.61,13-40.58-3.15c-2.57-4.17,3,12.4,3,12.4l-18.5-13.39,2.38,9.4-11.75-7.89,4.17,19.63s-2.43,2.24-8.43.33c-6.94-2.21-7.9-8.35-7.66-8.87.51-1.13-.52-33.55-4.27-46.57S101,348.3,121.62,358.7Z"/><path class="cls-6" d="M101.66,427.27l12.93-37.39,9.91.84-3.28-6.63,16.55,20.79-8.33-31.16s8.64,5.14,14.39,6.63a14,14,0,0,0,10.59-1.83L139,372.69l-11.55-10.22-4.75,2.61-3.07,8,1.37,4.63-5.56-4.38L72.14,391.22Z"/><path class="cls-5" d="M121.17,326.34S142,354,154.75,361.6c7.4,4.4-9.95,0-9.95,0l12.48,13.28-11.49-5.31,8.63,8.95s-21.24-2-26.88-10.61.34,20.23.34,20.23L118,374.88l1.54,8.29-7.63-7-11.83,32a28.41,28.41,0,0,0-3.5-12.42c-2.94-5-7.87-18.26-7.87-18.26.33-1,15.13-21.16,12.7-32.65S107.78,317.16,121.17,326.34Z"/><path class="cls-6" d="M100.44,381.72,110.12,344l10.78,11.54-3.71-11.85,11.41,15.83-4.81-26.33s7.08,5.42,12.84,6.91,13.8.26,13.8.26l-18.64-7.92-10.62-6.13-.75,11.25-8-4.75,1.37,4.63-5.56-4.38L91.37,343.84Z"/><path class="cls-6" d="M86.78,226.45l-6,5.31s-16.5,19.68-26.25,24.68,9.5-1.25,9.5-1.25-3.76,9.25-12.26,11,16.26,4.5,20.51,0,.23,9.34-25.5,22.25c-8.66,4.35,16.5-1.25,22.5-4.75,0,0,.18,4.44-16.25,11.25-10.25,4.25,18-1.25,18-1.25s-5.5,4.75-6,5,8.25-2.25,6.25,2.25,15.41,1.25,20.08,8,7.92,5.25,7.92,5.25L93,247.44s-4-20.24-6.26-21"/><path class="cls-5" d="M112.82,288.75s13.24,25.58,37.94,34.73c8.07,3-9.95,0-9.95,0l8.12,8.63c-1.24,3-14.24-5.77-14.24-5.77l15.74,14.05s-21.23-2-26.87-10.61.33,20.23.33,20.23l-9.84-13.26,1.54,8.29-7.63-7L100.44,370S84.8,353.43,83.94,354c-6.52,4.53,16-35.77,13.52-47.26S99.44,279.58,112.82,288.75Z"/><path class="cls-6" d="M94.83,343.88l12.67-34.79,9.44,13.13L115,311.09l9.5,12.55-4.37-22.55s7.08,5.42,12.83,6.92a13.69,13.69,0,0,0,10.19-1.37l-15-6.3-10.63-6.12-.75,11.25-8-4.75,1.38,4.62L104.57,301l-9.74,13.36Z"/><path class="cls-6" d="M83.25,289.33l-3.68.11S51.23,305.75,35.31,308.8s15.07.62,15.07.62-7.05,8.44-20.61,8.52,25,7.64,32.2,4-.8,9.31-42.79,17.09c-14.12,2.61,26.06,2,35.91-.31,0,0-.25,4.43-26.9,8C11.57,348.92,56.6,349,56.6,349s-9.22,3.64-10,3.79,13.23-.62,9.53,3.46,24.05,4.25,30.54,11.86l.14-15.22,13.66-43.41s-13.68-19-17.19-20.14"/><path class="cls-5" d="M109.93,261.35s17.26,22.12,32.81,30c8.8,4.48-8.61,0-8.61,0l10.8,11.48L135,298.27l8.16,8.37s-19.06-2.34-23.94-9.81.29,17.51.29,17.51L111,302.86l1.33,7.17-6.6-6s-4.88,16.62-6.73,13.52c-3.28-5.51-7.8-13.26-7.61-13.81.28-.86,3.91-16.56,1.81-26.5S98.35,253.41,109.93,261.35Z"/><path class="cls-6" d="M91.37,389.55l6.18-30.06s-17.85-17.27-22.3-18.58l-.3,2.41.3-2.41s-35.08,15.46-55,18,19,1.11,19,1.11-8.59,8.25-25.61,7.89,31.61,8.47,40.57,5.06c8.66-3.31-.07,8.48-48.06,15.11v2.5c12,.45,32.67.19,40-1,0,0-.18,4.45-33.55,7.16C-8.28,398.45,48.3,400,48.3,400s-13.47,3.14-12.5,3.48c22.52,7.78-8.35,10.86-12.86,14.83s53.26-3.9,61.66,4,17.06,5,17.06,5Z"/><path class="cls-6" d="M98.57,269.53l.42-2.91v20.25s2.14-14.61,4.88-11.32c2,2.44,5.94,1.7,5.94,1.7L107.54,272h0c1.7,5.59,10.76,8.9,10.76,8.9s-9.1-19-5.73-15,18,1.5,18,1.5l-12.67-3.76-7.82-6.52-6.55,6.78,1.17,6.25L99,266.62"/><path class="cls-5" d="M103,228.53s21.59,21.16,28.59,26.16-7.5,0-7.5,0l9.41,10-8.66-4,6.5,6.75s-16-1.5-20.25-8,.25,15.25.25,15.25l-7.42-10,1.17,6.25-5.75-5.25-3,16.57s-9.76-16.07-9.51-16.82,6.41-14.68,4.58-23.34S92.86,221.61,103,228.53Z"/><polygon class="cls-6" points="95.27 226.45 102.95 248.64 102.95 239.06 97.1 224.88 95.27 226.45"/><polygon class="cls-6" points="91.37 274.88 92.1 269.55 99.98 276.38 98.98 286.87 95.27 278.21 91.37 274.88"/><path class="cls-7" d="M66.29,336.66l20.41,8.49s-3.27,3.53-7,2.09C68.49,342.91,66.29,336.66,66.29,336.66Z"/><path class="cls-7" d="M59.73,292l21.08,10.15s-4.33,1.41-8.08,0C61.54,297.75,59.73,292,59.73,292Z"/><polygon class="cls-8" points="4.27 130.17 33.63 201.06 17.94 184.38 20.39 211.36 1.99 168.81 4.27 130.17"/><path class="cls-7" d="M20.39,214.8s-8.34-23.55-13.65-39.66c-1.15-3.48-4-15.81,4.82-6.94C15,171.63,3.71,128,3.71,128S2.56,133.9,0,142.29v75.15a37.43,37.43,0,0,0,3.71-20.79c-1-10.3,5.89,12.75,9.81,18.15,0,0,.49-7.36,0-9.81S20.39,214.8,20.39,214.8Z"/><polygon class="cls-7" points="17.94 184.38 33.63 201.06 17.94 190.76 17.94 184.38"/><polygon class="cls-2" points="19.03 196.44 29.22 216.27 20.39 209.65 19.03 196.44"/><path class="cls-8" d="M46.5,384.28s64.91,46.86,86,57.89c15.89,8.33-22.56,0-22.56,0l28.3,22.13-26-8.85,19.55,14.94s-45,19.13-59.71-4.63C68.24,459.62,76.49,484,76.49,484L49.27,464.3l3.51,13.83-17.3-11.61,6.14,28.88s-3.57,3.3-12.4.49C19,492.65,17.59,483.61,17.94,482.84c.75-1.66-.76-49.36-6.27-68.53S16.15,369,46.5,384.28Z"/><path class="cls-7" d="M72.07,404.86l-17-15-7,3.85-4.51,11.74,2,6.81-8.18-6.44L0,421.25v43l17.13,20.93,19-55,14.58,1.23-2.18-7.95,21.71,28.8L58,406.37s12.71,7.57,21.17,9.77,20.32.38,20.32.38Z"/><path class="cls-8" d="M99,408.08,80.61,388.55s25.53,6.47,14.64,0c-18.76-11.15-49.41-51.89-49.41-51.89-19.7-13.5-32.6,10.39-29,27.3C19.79,378,5.28,400.85,0,409v7.84c2.44,6.26,6.76,16.95,9.72,22a41.94,41.94,0,0,1,5.15,18.28L32.28,410l11.23,10.25-2.28-12.2L55.71,427.6s-8.79-42.47-.49-29.77,39.55,15.62,39.55,15.62l-12.7-13.18Z"/><path class="cls-7" d="M15.33,418.15,29.58,362.7l15.87,17L40,362.23l16.8,23.3L49.7,346.78s10.42,8,18.89,10.18,20.31.38,20.31.38L61.47,345.67l-15.63-9-1.1,16.56-11.78-7,2,6.8-8.19-6.44L2,362.41Z"/><path class="cls-7" d="M4.45,220.56S2.38,210,0,201.23V309a9.94,9.94,0,0,1,2,2.11c6.87,9.93,11.65,7.72,11.65,7.72Z"/><path class="cls-8" d="M89.39,332.44C53,319,33.56,281.35,33.56,281.35,13.86,267.85,7.37,291,11,307.86,12.63,315.78,6.26,333,0,348.41v36.72c6.93,6.84,15.33,15.73,15.33,15.73l11.08-46.94,11.23,10.25L35.36,352,49.84,371.5s-8.78-42.47-.48-29.78S88.9,357.34,88.9,357.34L65.73,336.66s19.13,12.88,21,8.49l-12-12.71S101.26,336.84,89.39,332.44Z"/><path class="cls-7" d="M7.09,362.47l18.64-51.19,13.88,19.31-2.84-16.37,14,18.47L44.31,299.5s10.42,8,18.89,10.18a20.12,20.12,0,0,0,15-2L56.09,298.4l-15.64-9-1.1,16.55-11.78-7,2,6.81-8.19-6.44L7.09,319Z"/><path class="cls-7" d="M0,292v68.59l15.33-48.73S7.24,300.62,0,292Z"/><path class="cls-8" d="M29.3,241s25.4,32.55,48.29,44.2c13,6.59-12.67,0-12.67,0l15.89,16.89-14.63-6.76,12,12.32s-28-3.45-35.22-14.43.42,25.76.42,25.76L30.86,302.11l2,10.55-9.72-8.86s-7.18,24.46-9.9,19.9C8.38,315.59,1.73,304.18,2,303.37c.42-1.26,5.76-24.37,2.66-39S12.26,229.34,29.3,241Z"/><path class="cls-7" d="M17.13,485.18,2,429.67l9.09-44.23S6.13,380.65,0,375.08V483.25A24.94,24.94,0,0,0,17.13,485.18Z"/><path class="cls-7" d="M12.59,253.05l.61-4.27v29.8s3.15-21.51,7.19-16.66c3,3.59,8.74,2.49,8.74,2.49l-3.35-7.74h0c2.51,8.22,15.84,13.1,15.84,13.1s-13.39-28-8.43-22.1,26.54,2.21,26.54,2.21l-18.64-5.54-11.51-9.58-9.64,10,1.72,9.2-8.46-5.15"/><path class="cls-8" d="M63.91,245.94,50.06,231.23s21.34,7.35,11,0S19,192.72,19,192.72C4.19,182.55-.7,200,2,212.7c1.3,6.12-.12,14-2,20.72v22.79c4.06,7.05,9.24,15.59,9.24,15.59l4.4-24.39,8.46,7.73-1.71-9.2L31.3,260.66s-6.62-32-.37-22.44S60.73,250,60.73,250l-9.56-9.93Z"/><polygon class="cls-7" points="7.73 189.66 19.03 222.31 19.03 208.22 10.43 187.36 7.73 189.66"/><polygon class="cls-7" points="1.99 260.94 3.07 253.09 14.66 263.14 13.2 278.58 7.73 265.83 1.99 260.94"/><path class="cls-2" d="M587.33,330.75l-14.47,6.64a4,4,0,0,0,4.31,1C584.77,335.45,587.33,330.75,587.33,330.75Z"/><path class="cls-2" d="M590.73,300.82l-14.33,6.9a9.32,9.32,0,0,0,5.49,0C589.49,304.76,590.73,300.82,590.73,300.82Z"/><polygon class="cls-9" points="628.41 190.87 608.46 239.05 619.13 227.72 617.46 246.05 629.96 217.13 628.41 190.87"/><path class="cls-2" d="M628.8,189.38s4.8,24.89,17.33,38.67c6.67,7.33-10-6.33-10-6.33l11.57,16.66-9.45-2.33a31.78,31.78,0,0,0,1.3,3c1.24,2.56,3.32,6.07,5.91,7.67,4.34,2.66-10.33-8.34-10.33-8.34s-5.33,9-2,13.67-5.64-2.33-4.33-16c.66-7-4,8.67-6.67,12.33a43.3,43.3,0,0,1,0-6.66c.33-1.67-4.67,6.66-4.67,6.66s5.67-16,9.28-26.94c.78-2.37,2.74-10.75-3.28-4.72C621.13,219.05,628.8,189.38,628.8,189.38Z"/><polygon class="cls-2" points="619.13 227.72 608.46 239.05 619.13 232.05 619.13 227.72"/><polygon class="cls-2" points="618.38 235.91 611.46 249.38 617.46 244.88 618.38 235.91"/><path class="cls-9" d="M599.72,363.56s-44.11,31.84-58.44,39.34c-10.8,5.66,15.33,0,15.33,0l-19.23,15,17.7-6-13.29,10.15s30.61,13,40.58-3.14c2.58-4.17-3,12.39-3,12.39l18.5-13.38-2.39,9.4,11.76-7.9L603,439.07s1.63,4.34,7.63,2.43c6.94-2.21,8.7-10.44,8.46-11-.51-1.13.51-33.55,4.26-46.57S620.34,353.16,599.72,363.56Z"/><path class="cls-2" d="M619.68,432.12l-12.93-37.38-9.92.83,3.29-6.62-16.55,20.79,8.33-31.17s-8.64,5.14-14.39,6.64-13.8.26-13.8.26l18.63-7.93,11.56-10.22,4.75,2.62,3.06,8-1.37,4.62,5.56-4.37,43.29,17.9Z"/><path class="cls-9" d="M600.17,331.2s-20.83,27.69-33.58,35.26c-7.4,4.4,9.95,0,9.95,0l-12.49,13.27,11.5-5.31-8.63,9s21.23-2,26.87-10.61-.33,20.23-.33,20.23l9.84-13.27L601.75,388l7.63-7,11.83,32a28.57,28.57,0,0,1,3.5-12.42c2.94-5,7.87-18.26,7.87-18.26-.33-1-15.12-21.16-12.69-32.66S613.55,322,600.17,331.2Z"/><path class="cls-2" d="M620.9,386.57l-9.68-37.68-10.78,11.54,3.71-11.86-11.42,15.84,4.81-26.34s-7.08,5.42-12.83,6.92-13.38.64-13.38.64l18.21-8.31,10.63-6.12.75,11.25,8-4.75-1.38,4.62,5.57-4.37L630,348.7Z"/><path class="cls-2" d="M634.55,231.3l6,5.32s16.5,19.68,26.25,24.68-9.5-1.25-9.5-1.25,3.76,9.25,12.25,11-16.25,4.5-20.5,0-.23,9.34,25.5,22.25c8.65,4.34-16.5-1.25-22.5-4.75,0,0-.19,4.44,16.25,11.25,10.25,4.25-18-1.25-18-1.25s5.5,4.75,6,5-8.25-2.25-6.25,2.25-15.42,1.25-20.09,8-7.91,5.25-7.91,5.25l6.25-66.75s4-20.25,6.25-21"/><path class="cls-9" d="M608.51,294s-13.23,25.58-37.94,34.72c-8.07,3,10,0,10,0l-8.13,8.64c1.25,3,14.25-5.77,14.25-5.77l-15.74,14.05s21.23-2,26.87-10.61-.33,20.23-.33,20.23L607.29,342l-1.55,8.3,7.63-7,7.53,31.89s15.64-16.53,16.5-15.93c6.51,4.52-16-35.77-13.52-47.27S621.9,284.86,608.51,294Z"/><path class="cls-2" d="M626.5,348.74,613.83,314l-9.43,13.12L606.33,316l-9.5,12.55L601.21,306s-7.09,5.42-12.84,6.92a13.72,13.72,0,0,1-10.18-1.37l15-6.3,11.92-6.13-.55,11.25,8-4.75-1.37,4.63,5.56-4.38,9.73,13.37Z"/><path class="cls-2" d="M642.06,296.72l-.3-2.42S670.1,310.6,686,313.66s-15.07.62-15.07.62,7,8.44,20.6,8.51-25,7.65-32.19,4,.79,9.31,42.78,17.09c14.13,2.61-26.06,2-35.91-.32,0,0,.26,4.44,26.9,8,16.62,2.21-28.41,2.28-28.41,2.28s9.22,3.64,10,3.79-13.23-.62-9.53,3.45-24,4.26-30.54,11.87l-.14-15.22L620.9,314.32s13.68-18.94,17.19-20.13"/><path class="cls-9" d="M611.41,266.21s-17.26,22.11-32.82,30c-8.8,4.48,8.61,0,8.61,0l-10.8,11.48,9.94-4.59-8.15,8.37s19.06-2.35,23.93-9.81-.28,17.51-.28,17.51l8.51-11.48L609,314.89l6.6-6s4.89,16.62,6.73,13.52c3.28-5.51,7.8-13.26,7.62-13.81-.29-.86-3.92-16.57-1.81-26.51S623,258.27,611.41,266.21Z"/><path class="cls-2" d="M630,394.41l-6.17-30.06s17.84-17.28,22.3-18.59l.3,2.42-.3-2.42s35.08,15.46,55,18-19,1.1-19,1.1,8.58,8.26,25.61,7.9-31.61,8.47-40.58,5.05c-8.66-3.3.08,8.49,48.06,15.12v2.5c-12,.44-32.66.19-40-1,0,0,.19,4.45,33.55,7.16,20.81,1.69-35.77,3.19-35.77,3.19s13.46,3.15,12.49,3.49c-22.52,7.77,8.35,10.86,12.87,14.83s-53.27-3.91-61.67,3.94-17.05,5.05-17.05,5.05Z"/><path class="cls-2" d="M622.76,274.38l-.41-2.9v20.25s-2.14-14.62-4.89-11.32c-2,2.44-5.94,1.69-5.94,1.69l2.28-5.26h0c-1.71,5.59-10.76,8.9-10.76,8.9s9.09-19,5.73-15-18,1.49-18,1.49l12.66-3.76,7.83-6.51,6.55,6.78L616.6,275l5.75-3.5"/><path class="cls-9" d="M618.38,233.38s-21.58,21.17-28.58,26.17,7.5,0,7.5,0l-9.41,10,8.66-4-6.5,6.75s16-1.5,20.25-8-.25,15.25-.25,15.25l7.41-10-1.16,6.25,5.75-5.25,3,16.57s9.76-16.07,9.51-16.82S628.13,255.62,630,247,628.47,226.47,618.38,233.38Z"/><polygon class="cls-2" points="626.07 231.3 618.38 253.49 618.38 243.92 624.23 229.74 626.07 231.3"/><polygon class="cls-2" points="629.96 279.74 629.23 274.41 621.35 281.24 622.35 291.73 626.07 283.07 629.96 279.74"/><path class="cls-2" d="M652.92,359.67,637,366.28s2.54,2.75,5.46,1.62C651.21,364.54,652.92,359.67,652.92,359.67Z"/><path class="cls-2" d="M658,324.88l-16.41,7.9a10.65,10.65,0,0,0,6.29,0C656.62,329.38,658,324.88,658,324.88Z"/><polygon class="cls-9" points="701.19 198.94 678.34 254.12 690.56 241.14 688.65 262.14 702.97 229.01 701.19 198.94"/><path class="cls-2" d="M720,262.38a14.39,14.39,0,0,1-2.46-2.42c.93.72,1.78,1.39,2.46,1.94Z"/><path class="cls-2" d="M688.65,264.81s6.49-18.32,10.62-30.86c.9-2.71,3.15-12.31-3.75-5.41-2.67,2.67,6.11-31.31,6.11-31.31s5.13,26.53,18.37,42.57v2.26c-3.93-2.83-10-7.79-10-7.79l10,14.35v3.93l-7.54-1.86s.53,1.47,1.49,3.43a31.57,31.57,0,0,0,3.59,5.84c-3.73-2.9-8.66-6.6-8.66-6.6s-6.1,10.31-2.29,15.65-6.45-2.67-5-18.32c.76-8-4.58,9.92-7.64,14.12,0,0-.38-5.72,0-7.63S688.65,264.81,688.65,264.81Z"/><polygon class="cls-2" points="690.56 241.14 678.34 254.12 690.56 246.1 690.56 241.14"/><polygon class="cls-2" points="689.71 250.52 681.78 265.96 688.65 260.81 689.71 250.52"/><path class="cls-9" d="M668.33,396.73s-50.53,36.48-66.94,45.07c-12.37,6.48,17.56,0,17.56,0l-22,17.22,20.28-6.89L602,463.76s35.06,14.89,46.48-3.6c2.95-4.78-3.48,14.19-3.48,14.19L666.17,459l-2.73,10.77,13.46-9-4.77,22.48s2.78,2.57,9.65.38c8-2.53,9.05-9.56,8.78-10.16-.59-1.29.59-38.42,4.88-53.34S692,384.82,668.33,396.73Z"/><path class="cls-2" d="M648.42,412.75l13.24-11.7,5.44,3,3.51,9.14-1.57,5.3,6.37-5L720,431.91v8.17l-28.81,35.19-14.81-42.82L665,433.4l3.76-7.58-19,23.81,9.55-35.7s-9.9,5.89-16.49,7.61-15.8.29-15.8.29Z"/><path class="cls-9" d="M668.84,359.67S645,391.38,630.38,400.06c-8.48,5,11.4,0,11.4,0l-14.31,15.2,13.17-6.08-9.88,10.26s24.32-2.28,30.78-12.16-.38,23.18-.38,23.18l11.27-15.2-1.77,9.5,8.73-8L693,453.47a32.49,32.49,0,0,1,4-14.23c3.36-5.77,9-20.92,9-20.92-.38-1.14-17.33-24.24-14.54-37.4S684.17,349.16,668.84,359.67Z"/><path class="cls-2" d="M692.59,423.1,681.5,379.93l-12.35,13.22,4.25-13.58-13.08,18.14,5.51-30.17s-8.11,6.21-14.7,7.93-15.81.3-15.81.3l21.35-9.08,12.17-7,.86,12.89,9.16-5.44-1.57,5.29,6.37-5L703,379.71Z"/><path class="cls-2" d="M701.06,269.3s4.53-23.19,7.16-24.05l6.87,6.08s1.93,2.3,4.91,5.61v76.92c-5.75.75-13.9,1.35-17,5.88-5.35,7.73-9.07,6-9.07,6Z"/><path class="cls-9" d="M678.4,316.62s-15.16,29.3-43.46,39.77c-9.24,3.42,11.4,0,11.4,0l-9.3,9.89c1.42,3.41,16.31-6.61,16.31-6.61l-18,16.1s24.32-2.28,30.78-12.16-.38,23.18-.38,23.18L677,371.59l-1.78,9.5,8.74-8,8.63,36.53s17.91-18.94,18.89-18.26c7.46,5.19-18.27-41-15.48-54.13S693.73,306.11,678.4,316.62Z"/><path class="cls-2" d="M699,379.76l-14.51-39.85-10.8,15,2.21-12.74L665,356.58l5-25.83s-8.11,6.2-14.7,7.92a15.7,15.7,0,0,1-11.67-1.56l17.21-7.22,12.17-7,.85,12.89,9.17-5.44-1.58,5.3,6.38-5L699,345.92Z"/><path class="cls-2" d="M712.27,317.28l4.56,2.89-.34-2.76s1.3.75,3.51,2v82.25c-5,1.43-9.38,3.28-11.61,5.89l-.16-17.44-15.64-49.73S708.25,318.64,712.27,317.28Z"/><path class="cls-9" d="M681.71,285.23s-19.76,25.33-37.58,34.4c-10.08,5.13,9.86,0,9.86,0l-12.37,13.15L653,327.52l-9.34,9.59s21.83-2.69,27.42-11.24-.33,20.05-.33,20.05l9.75-13.14L679,341l7.56-6.9s5.59,19,7.71,15.49c3.76-6.31,8.93-15.19,8.72-15.82-.33-1-4.48-19-2.07-30.36S695,276.13,681.71,285.23Z"/><path class="cls-2" d="M703,432.07l-7.08-34.43S713.31,380.78,720,377v89.28c-4.32.64-7.63,1.66-9.28,3.2-9.62,9-19.53,5.78-19.53,5.78Z"/><path class="cls-2" d="M694.72,294.59l-.47-3.33v23.2s-2.46-16.74-5.6-13c-2.33,2.8-6.8,1.94-6.8,1.94l2.6-6h0c-2,6.41-12.32,10.2-12.32,10.2s10.42-21.79,6.56-17.2S658,292.12,658,292.12l14.51-4.31,9-7.46,7.5,7.76-1.34,7.16,6.59-4"/><path class="cls-9" d="M689.71,247.63S665,271.88,657,277.6s8.59,0,8.59,0l-10.78,11.46,9.92-4.58-7.44,7.73s18.32-1.72,23.19-9.17-.28,17.47-.28,17.47l8.49-11.45-1.34,7.15,6.59-6,3.43,19s11.17-18.4,10.89-19.26-7.35-16.82-5.25-26.74S701.26,239.71,689.71,247.63Z"/><polygon class="cls-2" points="698.5 245.25 689.71 270.67 689.71 259.7 696.4 243.46 698.5 245.25"/><polygon class="cls-2" points="702.97 300.73 702.13 294.62 693.11 302.45 694.25 314.46 698.5 304.54 702.97 300.73"/><path class="cls-10" d="M526.59,456.91h-9.25s-5.26-3.12-5.63-11.93c-.27-6.45.67.85,4.66,4.14,2,1.61-1.28-3.16-1.34-11.21,0-3.54,1-7.59,2.8-12.16.61-1.58,5.89,8.81,5.52,20,0,0,2.27-7.06,1.78-13.39s-1.82-12.17-1.7-13.14c.26-2.08,9.25,7.79,9,22.15s1.46,3.17,2.92.49,4.09-4.43,2.92-8.52c-.49-1.71,2.6,3.26,3.41,11.2,1,9.49-4.87,12.41-4.87,12.41Z"/><path class="cls-11" d="M536.16,445.21c.52,4-1,8.13-4.06,8.71-.73.14-1.35-1.51-1.5-3.83-.35-5.13-4.61-8.17-3.87-6.34,1.55,3.83-2.14,8.56-2.16,9.67-.55-.46-1.76-1.72-2.39-4.92-.34-1.7-2.67-4.75-2.67-4.75-1.07,2.79-.76,6.26-.23,8.95v0a8.29,8.29,0,0,1-4.27-2.58c-2.25-2.42.92,5,4.91,6.83h.52l14.29,0C541.8,452.21,535.9,443.22,536.16,445.21Z"/><path class="cls-12" d="M546,458.16a2.1,2.1,0,0,1-2.1,2.1H530.45a2.1,2.1,0,0,1-2.1-2.1h0a2.1,2.1,0,0,1,2.1-2.1h13.46a2.1,2.1,0,0,1,2.1,2.1Z"/><path class="cls-12" d="M527.17,458.16a2.1,2.1,0,0,1-2.1,2.1H511.6a2.1,2.1,0,0,1-2.1-2.1h0a2.1,2.1,0,0,1,2.1-2.1h13.47a2.1,2.1,0,0,1,2.1,2.1Z"/><path class="cls-12" d="M537.18,460.26a2.1,2.1,0,0,1-2.1,2.1H521.61a2.1,2.1,0,0,1-2.1-2.1h0a2.1,2.1,0,0,1,2.1-2.1h13.47a2.1,2.1,0,0,1,2.1,2.1Z"/><path class="cls-13" d="M570,390.5,556,398.67l11.37.16L556,408.5l17.21-1s-16.38,10.83-21.55,12.83c0,0,13.15-3,18.41-7.25s5.76-8.07,5.76-8.07l-13.46.4,10-9.3-11.79,1.06Z"/><polygon class="cls-13" points="592.86 407.51 588.08 411.67 585.19 420.34 600.63 409.64 600.63 421.67 609.57 411.71 601.67 416.31 602.18 405.42 588.19 416.31 592.86 407.51"/><path class="cls-13" d="M576.11,378.83s17.36-7.21,18.94-11.93c.73-2.16,3.27,10.11,3.27,15.43,0,1.5,7-7.47,7-7.47V382l5.89-3.88,9.34,22.93L613,375.67l-6.25,2v-6.88l-6.21,4.07-3.81-10.94S585,374.23,576.11,378.83"/><path class="cls-13" d="M645,390.5l-10.81,9.22,9.49-.72-7.33,9.67,7.33-1.16L637,416.43s8.29-2.6,11-5.1l-5.17.5,3.91-6.81-6.24.4,5.33-8.24h-6.16Z"/><polygon class="cls-13" points="602.35 336 600.43 347.75 608.92 337.7 608.46 345.92 614.92 341.88 622.05 367.03 617.46 338.62 610 341.5 610 333.57 602.35 341.6 602.35 336"/><polygon class="cls-13" points="617.75 446.75 606.45 453.47 620.9 450.09 606.75 462.36 622.76 466.25 611.25 461.25 624.88 448.38 615.41 449.5 617.75 446.75"/><polygon class="cls-13" points="609.23 411.89 606.45 439.38 610.95 410.88 609.23 411.89"/><path class="cls-13" d="M627.47,428.17c-.22.21-23.93,14.33-23.93,14.33l20.09-3.12-5.88,7.37,9.33-8.85-15.33,1.48Z"/><path class="cls-13" d="M583.57,354.83c.1.34-11.9,9.09-11.9,9.09l10.83-2.37L574,373l13.89-14.07-9.7,1.54Z"/><path class="cls-13" d="M587.89,321.33l-8.55,5.17,4.27-.67-6.26,9.08,13-6.41s-13.15,14.4-12.14,13.65c.36-.27,15.64-10.41,15.64-10.41l-5.94,1.84,4.69-7.33-10.91,4.95,4.6-7.29Z"/><polygon class="cls-13" points="605.88 300.13 605.13 312.5 612.45 302.25 611.21 310.2 621.35 300.82 613.8 306 613.8 299.07 606.45 305.79 605.88 300.13"/><path class="cls-4" d="M500.87,468.75c-.27-.28,56.26,0,56.26,0s7.37,2.37,4.62,2.63-8.25,1.24-8.25,1.24l5.75.63h-24.5s-22.12,1-20.5,0,8.75-2,8.75-2S503.25,471.12,500.87,468.75Z"/><g class="cls-14"><path class="cls-15" d="M514.5,423c2.5-5.5,5-14,5-20.5,0-13.5-8-19.5-15-30-14.5-22.5-5.25-43.86,9.75-64.36,14.5-20.5,17.37-39.7-10.75-72.64,5.5,4,34,10.41,39.31,25.67,6.69,19.18-5.15,28.15-9.15,39.65-4,10-16.32,19.38-15.32,30.38,1.5,14.5,25.16,17.8,27.66,30.3,2.5,14.5-10,26.5-12.5,39.5-2,11.5,6.5,25.5.5,35.5,1.5-6.5,3.5-16.5-3.5-20.5-7-4.5-13.5,3-15,7"/></g><g class="cls-14"><path class="cls-15" d="M513,297.5c16.5-20.66,2.75-40.19-12-48.5,6.5,7,12,15.91,14,25.41,1,3.5.8,19.78-2,23.09"/></g><g class="cls-14"><path class="cls-15" d="M541.33,344.73c-5,1.37-11.17-2.29-12.67-4.67-3.53-5.59-5.63-10.88-3.33-16.67,5.33-13.45,20.3-22.76,21.67-31.66-1.34,10.66-9.34,19-14,28-4.34,8.33-3,22.66,8.33,25"/></g><path class="cls-10" d="M387.12,395.51c-.07,0-.16.14-.05.33v0a.3.3,0,0,0,0-.08Z"/><path class="cls-10" d="M387.12,395.51v.27C387.21,395.58,387.18,395.5,387.12,395.51Z"/><path class="cls-10" d="M387.08,395.86a.16.16,0,0,0,0,.07v-.15A.3.3,0,0,1,387.08,395.86Z"/><polygon class="cls-12" points="416.13 394.66 416.13 395.05 421.81 458.72 404.39 462.32 416.13 394.66"/><polygon class="cls-16" points="416.13 394.45 329.55 394.45 328 396.86 282.48 467.64 367.55 470.12 416.13 394.45"/><polygon class="cls-17" points="367.55 470.12 322.48 488.96 201.32 490.64 282.48 467.64 367.55 470.12"/><polygon class="cls-17" points="449.4 451.53 437.34 453.26 437.93 454.52 449.69 452.5 449.4 451.53"/><path class="cls-18" d="M343.05,480.36c-.31.37.21.91.53.53l30.83-36.8-1.34.43Z"/><path class="cls-19" d="M416.09,394v-.64a.3.3,0,0,0-.22.1l-42.8,51.09,1.34-.43,14.75-17.61,24.21-28.9,2.44-2.92a1.44,1.44,0,0,0,.24-.34v0C415.93,394.11,416,394,416.09,394Z"/><path class="cls-18" d="M446.52,446.45l-1.14-.48,3.61,6.35c.23.42.88,0,.64-.38Z"/><path class="cls-10" d="M416.46,393.51a.42.42,0,0,0-.37-.18V394c.07,0,.1.07,0,.27v.16q3.39,5.94,6.76,11.89L445.38,446l1.14.48Z"/><path class="cls-20" d="M257.84,473.6c-.33.35.2.89.53.53l52.22-58.05c-.48.16-.95.33-1.43.48Q283.5,445.08,257.84,473.6Z"/><path class="cls-21" d="M329.28,394.19q-10.06,11.18-20.12,22.37c.48-.15.95-.32,1.43-.48l19.22-21.36C330.14,394.36,329.61,393.83,329.28,394.19Z"/><path class="cls-22" d="M416.13,394.66s19.8,52.57,21.8,60.64l-16.68,3.42Z"/><polygon class="cls-23" points="404.39 462.45 367.14 470.25 416.13 394.58 404.39 462.45"/><path class="cls-24" d="M415.69,395.08l-11.3,67.24s-20.54.95-23.7-7.8C380.69,454.52,405.84,426.61,415.69,395.08Z"/><path class="cls-10" d="M416.29,394.45l-11.9,67.87s-13.91,0-16.41-5.7C388,456.62,407.79,426.37,416.29,394.45Z"/><polygon class="cls-25" points="420 457.5 407.17 453.52 406 459.26 420 457.5"/></g></g></svg>