<svg id="Layer_1" data-name="Layer 1" xmlns="http://www.w3.org/2000/svg" viewBox="0 0 720 504"><defs><style>.cls-1{fill:#754a64;}.cls-2{fill:#3c5f7c;}.cls-3,.cls-6{opacity:0.5;}.cls-4,.cls-6{fill:#3f2c36;}.cls-5{fill:#33556d;opacity:0.8;}.cls-7{fill:#805066;}.cls-8{fill:#4d7087;}.cls-9{fill:#608396;}</style></defs><title>MoutainLake-01</title><polygon class="cls-1" points="-6.36 370.8 233.9 287.12 345.53 351.32 465.99 286 558.3 345.76 640.78 274.41 720 336 720 370.8 142.5 370.8 -6.36 370.8"/><polygon class="cls-1" points="218.78 321.72 133.45 343.88 148.93 368.27 360 367.94 218.78 321.72"/><polygon class="cls-2" points="-102.17 369.02 777.02 368.49 717.74 409.99 335.47 426.4 -48.48 410 -102.17 369.02"/><g class="cls-3"><polygon class="cls-4" points="351.71 362.94 356.93 365.38 359.57 363.37 361.01 365.38 362.46 363.69 364.16 365.38 365.53 361.59 367.74 365.6 369.87 363.78 371.83 365.6 373.7 361.27 375.91 365.88 380.05 364.95 383.58 365.88 385.54 365.06 388.43 366.81 392.18 367.75 394.55 369.15 351.71 369.01 351.71 362.94"/><path class="cls-4" d="M142,369c.14-.15,2.23-10.41,2.52-10.22a27.55,27.55,0,0,1,1.75,3.47h0l4.09-6.7,1.46,2.41,1.31-.1s1,2.95,1,3,.73-1.35.73-1.35l1.31,1.5,1-1.69,1,1.11,3.21-6.71,2.05,5.5,5-10.54,5.92,5.62,1.45-2.36,1,3.47,1.45-2.26,2.19,3.85,2.19-5.59,1,6.7,1.75-2.17,1.9,1.69,2.33-6.46,2.77,6.12,2.19-3.23,2.48,3.67,1-1.69,1,2.12,1.17-2,.87,1.73,1.32-2.75,1.31,2.85s1.6-1.11,1.75-1,3.21,4.44,3.21,4.44l1.31-1.59s1.9,2.6,1.9,2.7,2.19-2.8,1.75-2.7l1.6,1.35,1.17-3.09,1.6,2.17,1.46-1.64.88,1.64,1.46-4.72,2.48,5.16s1.31-1.93,1.6-1.79a26,26,0,0,1,1.75,3.43l1.32-1.4.72,2.22,1.17-1.35,1.46,3.23,1.46-.73,1.31.58,1.17-4.1,2,1.93,1.75-7,1.75,3.76,1.61-2.26,2,4.05,1.16-.92,1.75,1.79,1.26,6.83Z"/><path class="cls-4" d="M385.29,362.81l5.21,2.44,2.64-2,1.45,2,1.45-1.69,1.7,1.69,1.37-3.79,2.21,4,2.13-1.82,2,1.82,1.87-4.33,2.21,4.61,4.14-.93,3.52.93,2-.82,4.44-1.77s3.55-.54,5.12.74,2.78,4.76,2.78,4.76l-45.74.49Z"/><path class="cls-4" d="M244.35,369c.14-.15,3.06-8.92,3.35-8.73a29,29,0,0,1,1.75,3.47h0l4.09-6.7,1.46,2.41,1.31-.1s1,2.94,1,3,.73-1.35.73-1.35l1.31,1.5,1-1.69,1,1.11,3.21-6.71,5.71,6.34L274.94,350l2.66,5.77,1.46-2.36,1,3.47,1.46-2.27,2.19,3.86,2.19-5.59,1,6.7,1.75-2.17,1.9,1.69,2.33-6.46,2.77,6.12,2.19-3.23,2.48,3.67,1-1.69,1,2.12,1.17-2,.87,1.74,1.32-2.75,1.31,2.85s1.6-1.11,1.75-1,3.21,4.44,3.21,4.44l1.31-1.59s1.9,2.6,1.9,2.7,2.18-2.8,1.75-2.7l1.6,1.35,1.17-3.09,1.6,2.17,1.46-1.64.88,1.64,1.46-4.72,2.47,5.16s1.32-1.93,1.61-1.79a26,26,0,0,1,1.75,3.43l1.31-1.4.73,2.22,1.17-1.35,1.46,3.23,1.46-.73,1.31.58,1.17-4.1,2,1.93,1.75-7,1.75,3.76,1.6-2.26,2.05,4.05,1.16-.92,1.75,1.78,1.77,5.42Z"/></g><polygon class="cls-4" points="637.85 362.04 643.07 364.47 645.71 362.46 647.15 364.47 648.6 362.78 650.3 364.47 651.66 360.68 653.88 364.69 656.01 362.87 657.97 364.69 659.84 360.36 662.05 364.97 666.19 364.04 669.72 364.97 671.67 364.15 674.57 365.9 678.32 366.85 680.69 368.24 637.85 368.1 637.85 362.04"/><path class="cls-5" d="M144.93,368.27l220.68.88h3.6l207.19-.63,1.79,6.35s-113.82-2.74-128.5-3.17-208.69-.57-209.94,0-90.82,3.17-90.82,3.17Z"/><polygon class="cls-5" points="157.28 396.62 169.67 406.85 379.18 427.27 560.26 405.42 570.03 394.87 382.35 420.34 157.28 396.62"/><path class="cls-6" d="M431.45,368.66c.14-.15,1.22-10.65,1.51-10.45a29,29,0,0,1,1.75,3.47h0l4.08-6.71,1.46,2.42,1.31-.1s1,2.94,1,3,.73-1.35.73-1.35l1.32,1.49,1-1.69,1,1.11,3.21-6.7,2.1,7.49,3.27-3.74,2,2.58,3.5-8.9,1.67,4.53,1.86-3.75,1,3.48,1.46-2.27,2.18,3.86,2.19-5.6,1,6.71,1.75-2.17,1.9,1.69,2.33-6.47,2.78,6.13,2.18-3.23,2.48,3.66,1-1.69,1,2.13,1.16-2,.88,1.74,1.31-2.75,1.31,2.84s1.61-1.11,1.75-1,3.21,4.44,3.21,4.44l1.31-1.6s1.9,2.61,1.9,2.71,2.19-2.8,1.75-2.71l1.61,1.35,1.16-3.08,1.61,2.17,1.46-1.64.87,1.64,1.46-4.73,2.48,5.16s1.31-1.93,1.6-1.78a24.17,24.17,0,0,1,1.75,3.42l1.32-1.4.73,2.22,1.16-1.35,1.46,3.23,1.46-.72,1.31.58,1.17-4.1,2,1.93,1.75-7,1.75,3.76,1.61-2.27,2,4,1.17-.91,1.75,1.78,1.25,6.83Z"/><polygon class="cls-4" points="671.43 361.9 676.64 364.34 679.28 362.33 680.73 364.34 682.18 362.65 683.88 364.34 685.24 360.55 687.46 364.56 689.59 362.74 691.54 364.56 693.42 360.23 695.63 364.84 699.77 363.91 703.29 364.84 705.25 364.02 709.69 362.25 712.15 361.25 717.58 368.87 671.84 368.24 671.43 361.9"/><polygon class="cls-7" points="466.51 286.39 461.84 292.87 468.84 299.34 461.84 299.34 461.84 306.57 457.42 309.05 479.84 327.5 504.06 348.21 595.05 366.9 585.17 353.08 466.51 286.39"/><path class="cls-6" d="M537.38,368.69c.15-.19,2.24-13.41,2.53-13.16a42.85,42.85,0,0,1,1.75,4.47h0l4.08-8.63,1.46,3.11,1.31-.13s1,3.79,1,3.91.73-1.73.73-1.73l1.32,1.92,1-2.17,1,1.43,3.21-8.64,2.1,9.64,3.27-4.8,2,3.31,3.5-11.46,1.67,5.84,1.86-4.82,1,4.47,1.46-2.92,2.18,5,2.19-7.21,1,8.63,1.75-2.79,1.9,2.17,2.33-8.32,2.78,7.89,2.18-4.16,2.48,4.72,1-2.18,1,2.74,1.16-2.61.88,2.23,1.31-3.54,1.31,3.67s1.61-1.43,1.75-1.24,3.21,5.71,3.21,5.71l1.32-2.05s1.89,3.35,1.89,3.48,2.19-3.6,1.75-3.48l1.61,1.74,1.16-4,1.61,2.8,1.46-2.11.87,2.11,1.46-6.09,2.48,6.65s1.31-2.49,1.6-2.3a35.91,35.91,0,0,1,1.75,4.41l1.32-1.8.73,2.85,1.16-1.74,1.46,4.17,1.46-.94,1.31.75,1.17-5.28,2,2.49,1.75-9.07,1.75,4.84,1.61-2.91,2,5.21,1.17-1.18,1.75,2.3,1.25,8.79Z"/><path class="cls-8" d="M442.49,400.26c2.92.07,5.06-1.84.38-2.06s-30.59-1.94-30.59-1.94,35.45-1.87,37-1.87c1.41,0-1.36-2.8-6.28-3.08l-41.4-2.38S426.08,385.65,430,386c4.25.38-31.93-3.42-31.93-3.42l28.82-2.82-25.72-4,44.75-7.08-23.75.49-72,3.81,24.39,4.74-55.23-1.31,21.38,3.37L234,384.05l76.26,4.21s-62.58,2.34-61.25,4,46.34,4.93,38.59,4.14c0,0,28.9,2.1,14.52,2.86-29.08,1.55-90-.71-85.87.77,6.15,2.22,83.23,4.35,83.23,4.35s-43.37,5.75-36.72,5.76,50.56,1.58,50.56,1.58l-22.59,4.55L360,424l81-7.6-28.38-4.62s25.88-2.05,29.7-2.37,4.42-2.23-1.55-2.45S399.35,401,399.35,401,439.57,400.19,442.49,400.26Z"/><path class="cls-9" d="M409.94,403.59c1.88.06,3.25-1.53.25-1.72s-19.61-1.62-19.61-1.62,22.72-1.57,23.74-1.57-.87-2.34-4-2.58l-26.54-2s15.66-2.75,18.19-2.46c2.73.32-20.47-2.86-20.47-2.86L400,386.44l-16.49-3.36,28.2-3.32-18.92-1.64H382l-31.23,2.63,15.64,4L331,383.62l13.7,2.82L276.29,390l48.88,3.53s-40.11,1.95-39.26,3.36,29.7,4.13,24.73,3.47c0,0,18.53,1.75,9.31,2.39-18.64,1.3-57.69-.59-55.05.65,4,1.85,53.36,3.63,53.36,3.63s-27.8,4.82-23.54,4.83,32.41,1.32,32.41,1.32L312.65,417l44.41,6.42,52-6.37-18.2-3.86s16.59-1.71,19-2,2.83-1.86-1-2.05-26.58-5-26.58-5S408.07,403.54,409.94,403.59Z"/><polyline class="cls-9" points="367.63 373.63 414.56 369.97 394.5 375.88 410.88 379.76 382 378.13 367.63 373.63"/><path class="cls-7" d="M234.8,287.72l-1.72,6.67-5.33,2.66-4.59,7.34,4.59,2.66s-29.19,18.67-27.2,18.67,18.23-4,18.23-4L336,358.94l8.38-7.62Z"/></svg>